<mxfile host="app.diagrams.net" modified="2024-09-24T23:38:14.607Z" agent="Mozilla/5.0 (Macintosh; Intel Mac OS X 10_15_7) AppleWebKit/537.36 (KHTML, like Gecko) Chrome/128.0.0.0 Safari/537.36" version="24.4.0" etag="jQJKE5l7vJesAA-TY9tY" type="github">
  <diagram name="第 1 页" id="bFdSH2xW-WDMMYliEMal">
    <mxGraphModel>
      <root>
        <mxCell id="0" />
        <mxCell id="1" parent="0" />
      </root>
    </mxGraphModel>
  </diagram>
</mxfile>
